<svg width="12" height="8" viewBox="0 0 12 8" fill="none" xmlns="http://www.w3.org/2000/svg">
<path fill-rule="evenodd" clip-rule="evenodd" d="M8.24052 0.231016L11.7364 3.42312C12.0882 3.7364 12.0875 4.26405 11.7366 4.57708L8.24068 7.76884C7.90706 8.08117 7.37452 8.07216 7.04481 7.77113L7.36227 7.44871L7.0452 7.77149C6.69834 7.45554 6.70729 6.93525 7.03911 6.6217L7.04507 6.61607L7.04513 6.61612L9.03381 4.80382H0.852344C0.394402 4.80382 0 4.45561 0 3.99743C0 3.53108 0.403136 3.19652 0.851637 3.19586L0.852344 3.19586L9.03538 3.19586L7.0452 1.37881C7.04513 1.37874 7.04505 1.37867 7.04497 1.3786C6.70157 1.06557 6.70223 0.541647 7.04481 0.228867C7.37481 -0.072424 7.90686 -0.0808542 8.24052 0.231016ZM7.67971 7.1259C7.67973 7.12591 7.67974 7.12592 7.67976 7.12594L7.67953 7.12573M7.67953 0.733052C7.67966 0.733171 7.67979 0.733289 7.67992 0.733409L7.67953 0.733052Z" fill="white"/>
</svg>
